<svg t="1650514715297" class="icon" viewBox="0 0 1365 1024" version="1.1" xmlns="http://www.w3.org/2000/svg" p-id="2269" width="200" height="200"><path d="M168.566898 871.822222c8.248889-16.497778 24.803556-33.052444 24.803555-41.301333 0-16.384-57.685333-90.680889-90.680889-181.418667-8.248889 8.192-16.497778 16.440889-16.497777 24.803556-8.192 8.248889-57.628444 41.244444-57.628445 74.296889-0.170667 24.632889 32.711111 107.178667 140.003556 123.619555z m668.273778-206.279111c-24.803556 49.493333-90.737778 198.030222-123.733334 255.715556 16.440889 8.248889 41.244444 8.248889 66.048 8.248889 49.493333 0 82.488889-8.248889 90.737778-24.803556 8.192-16.497778-8.248889-189.838222-33.052444-231.082667 8.248889 0.113778 0-8.078222 0-8.078222z" p-id="2270"></path><path d="M1274.202453 170.496c-16.497778-8.192-24.803556-16.440889-41.244444-8.192-24.860444 8.192-33.052444 16.440889-41.301333 32.995556-8.192 8.248889-8.192 16.497778-16.384 16.497777-8.248889 8.192-16.497778 8.192-24.860445 8.192-8.192 8.192-8.192 16.440889-8.192 24.803556 0 8.192 0 8.192 8.192 16.440889 8.248889 0 41.244444-8.248889 57.685333-24.803556l33.052445-49.493333s-8.192 41.244444-32.995556 66.048c-24.860444 16.497778-49.493333 16.497778-57.742222 8.248889 0 16.440889 8.248889 24.803556 8.248889 49.493333 0 41.244444-24.803556 74.24-24.803556 74.24l-16.497777 24.860445s24.860444-74.296889 24.860444-107.349334v-8.192h-8.248889c-8.192 0-16.440889 8.192-24.803555 24.803556-8.192 16.440889-24.803556 66.048-24.803556 66.048v-24.803556c0-8.248889 0-24.803556 8.192-41.244444 0-16.497778 16.497778-24.803556 24.860445-24.803556-8.248889 0-16.497778 0-24.860445 8.192-16.440889 8.248889-41.244444 57.685333-41.244444 57.685334s0-8.192 8.248889-16.440889c8.192-16.440889 8.192-41.244444 24.803555-49.493334 24.803556-16.384 66.048 0 66.048 0V269.653333c0-8.192-8.192-16.440889-8.192-24.803555v-8.192a17.635556 17.635556 0 0 1 16.440889-16.497778c-8.248889-16.384-16.497778-32.995556-32.995556-57.628444-24.860444-24.860444-49.493333-33.052444-66.104888-41.301334-8.248889 0-16.497778 0-16.497778-8.192l-16.384-16.440889c-32.995556-32.995556-107.349333-115.541333-247.523556-90.737777-164.977778 24.803556-214.471111 98.986667-222.72 123.790222h66.104889c16.440889 0 57.685333 8.192 57.685333 8.192-41.244444 0-140.231111 8.248889-148.593777 24.803555-16.440889 16.497778-206.279111 206.279111-206.279111 263.964445 0 32.995556 16.497778 49.493333 33.052444 66.104889 0 16.384 16.440889 24.803556 16.440889 41.244444 8.192-24.860444 32.995556-57.685333 82.488889-90.737778 0 0-41.244444 41.244444-41.244445 57.685334-16.440889 32.995556-24.803556 57.685333-32.995555 82.488889 0 0-8.248889 8.248889 0 24.803555 0 8.248889 32.995556 49.493333 82.488889 49.493333 24.803556 0 57.685333-16.440889 90.737777-32.995555 16.384-16.497778 49.493333-33.052444 90.680889-41.301333 8.248889-8.192 24.803556-49.493333 24.803556-90.680889 0-24.860444-8.192-41.301333-8.192-57.742223-8.192-8.192-8.192-32.995556-8.192-49.493333V278.186667s0 24.860444 8.192 33.052444c0 0 8.248889 32.995556 8.248889 74.296889 0 16.440889 8.192 32.995556 8.192 49.493333 8.192 16.384 8.192 41.244444 8.192 65.991111 0 41.301333-16.440889 82.545778-24.803556 98.986667 0 8.192-8.192 8.192-16.440889 8.192-32.995556 0-66.048 16.497778-98.929777 41.301333-32.995556 16.440889-66.048 32.995556-98.986667 32.995556-65.991111 0-98.872889-66.048-98.872889-66.048v-8.248889c0-16.384 0-16.384 8.192-24.803555v-33.336889c0-16.440889-8.192-24.803556-24.803556-41.244445-16.497778-16.497778-32.995556-32.995556-32.995555-82.488889s82.488889-156.842667 148.48-222.72c-24.746667 0-156.728889 0-255.715556 107.292445-24.803556 33.052444-49.493333 57.685333-65.991111 82.488889-8.248889 16.497778-41.301333 33.052444-49.493333 33.052444 0 0 8.192-8.192 8.192-24.803555 8.192-41.244444 8.192-82.488889 16.440889-82.488889l16.440889-32.995556-24.803556 8.192S19.859342 327.281778 3.418453 376.775111c-8.248889 24.803556 0 41.244444 8.192 49.493333l8.248889 8.192v8.192c0 8.248889 0 33.052444 24.803556 41.301334 8.192 8.192 16.440889 8.192 32.995555 8.192h16.497778c-8.248889 41.244444-8.248889 82.488889 8.192 123.733333 0 8.248889 0 8.248889 8.248889 16.497778 33.166222 91.022222 91.022222 173.511111 99.214222 181.76 0 16.384-16.440889 41.244444-32.995555 65.991111v-8.192c-8.248889 24.860444-8.248889 41.301333-8.248889 57.742222 0 8.192 8.248889 24.803556 57.685333 41.244445 24.860444 8.192 74.296889 24.803556 107.349333 24.803555 8.192 0 16.440889 0 16.440889-8.248889 24.803556-8.192 24.803556-65.991111 24.803556-65.991111l8.192-16.497778c8.248889-16.440889 8.248889-32.995556 8.248889-49.493333 0-8.192 0-16.384-8.248889-24.803555 8.248889 0 33.052444 8.248889 41.301333 8.248888 16.440889 0 66.048 0 82.488889-8.248888-16.440889 8.248889-32.995556 24.860444-41.244444 33.052444-8.248889 16.440889-24.803556 32.995556-16.497778 57.685333 8.248889 8.248889 8.248889 16.440889 16.497778 32.995556 24.803556 41.301333 49.493333 66.104889 82.488889 66.104889h8.248888c16.384 0 24.803556-8.192 32.995556-16.440889 0-8.192 8.248889-16.440889 24.803556-24.803556 16.497778-16.440889 41.301333-32.995556 57.685333-49.493333 33.052444-49.493333 82.488889-156.785778 123.790222-263.964444 16.440889-24.803556 0-32.995556-8.248889-32.995556-16.384-8.248889-32.995556-32.995556-49.493333-49.493333l16.497778 8.248889c16.440889 8.192 24.803556 16.440889 32.995555 16.440888 16.497778 8.192 33.052444 8.192 57.742222 32.995556 32.995556 41.244444 82.488889 66.104889 131.982223 49.493333 49.493333-16.440889 49.493333-82.488889 49.493333-82.488889h24.746667c24.803556 0 41.244444 8.192 66.104889 8.192 24.803556 0 49.493333 0 74.24-8.192 82.488889-24.860444 140.231111-123.790222 131.982222-263.964444 0-99.271111-16.440889-148.764444-49.493334-173.511111z m-181.646222 57.856c8.248889 0 16.497778 0 16.497778 8.248889 8.192 16.384 8.192 32.995556 8.192 49.493333h-24.803556l8.192-8.248889a17.635556 17.635556 0 0 0-16.440889-16.497777 17.635556 17.635556 0 0 0-16.440888 16.497777c0 8.192 0 8.192 8.248888 16.440889h-24.860444s8.248889 0 16.497778-8.248889c0-8.192-16.497778-24.803556 0-41.244444-16.497778 0-33.052444 8.192-33.052445 8.192s33.336889-24.632889 58.026667-24.632889z m-486.627555-32.995556s-24.803556 8.192-32.995556 32.995556l-16.611556 49.493333s-8.248889-41.244444 0-57.685333c-24.860444 24.803556-57.742222 115.484444-57.742222 115.484444s24.860444-123.733333 66.104889-140.174222c41.244444-24.803556 98.929778-8.192 98.929778-8.192s-24.803556-0.170667-57.685333 8.021334z m189.667555 24.632889c-8.248889 24.803556-8.248889 74.296889-8.248889 74.296889s-8.192-57.685333 0-82.488889c8.248889-16.497778 57.742222-33.052444 57.742222-33.052444s-41.301333 24.803556-49.493333 41.244444z m49.493333 173.397334s8.192-24.860444 24.803556-49.493334v-8.192l8.192 8.192a17.635556 17.635556 0 0 0 16.497778-16.440889 17.635556 17.635556 0 0 0-16.497778-16.440888 17.635556 17.635556 0 0 0-16.440889 16.497777c0 8.192 0 8.192 8.248889 8.192-8.248889-8.248889-16.497778-24.860444-16.497778-33.052444l-32.995555 32.995555s32.995556-41.244444 49.493333-57.628444c16.440889-16.497778 57.685333-16.497778 57.685333-16.497778s-16.497778 0-32.995555 16.497778c16.384 0 32.995556 24.803556 41.187555 32.995556 16.497778-8.192 33.052444-8.192 33.052445-8.192s-41.244444 16.440889-66.048 32.995555c-24.689778 16.327111-57.685333 57.571556-57.685334 57.571556z m41.244445 197.859555s0-32.995556 8.192-49.493333c8.248889-8.192 49.493333-16.384 49.493333-16.384s-32.995556 8.192-41.244444 24.803555c-8.078222 16.440889-16.497778 41.073778-16.497778 41.073778z m57.856 90.908445c-57.685333-8.248889-16.497778-123.790222-16.497778-123.790223l90.737778 41.244445c-8.362667 0-24.803556 98.986667-74.24 82.488889z" p-id="2271"></path></svg>